<?xml version="1.0" encoding="utf-8"?>
<!-- Generator: Adobe Illustrator 18.1.0, SVG Export Plug-In . SVG Version: 6.00 Build 0)  -->
<!DOCTYPE svg PUBLIC "-//W3C//DTD SVG 1.1//EN" "http://www.w3.org/Graphics/SVG/1.1/DTD/svg11.dtd">
<svg version="1.1" id="Layer_1" xmlns:sketch="http://www.bohemiancoding.com/sketch/ns"
	 xmlns="http://www.w3.org/2000/svg" xmlns:xlink="http://www.w3.org/1999/xlink" x="0px" y="0px" viewBox="12 -12 280 280"
	 enable-background="new 12 -12 280 280" xml:space="preserve">
<title>logo</title>
<description>Created with Sketch (http://www.bohemiancoding.com/sketch)</description>
<g id="Page-1" sketch:type="MSPage">
	<g id="Artboard-1" sketch:type="MSArtboardGroup">
		<g id="Layer_1-copy-2" transform="translate(0.000000, 2.000000)" sketch:type="MSLayerGroup">
			<path id="Shape" sketch:type="MSShapeGroup" fill="#5B5B5B" d="M168.7,76.7c1.2-2.6,3.1-4.3,4.4-3.8c1.3,0.5,1.3,3.1,0.2,5.7
				s-3.1,4.3-4.4,3.8C167.6,81.9,167.5,79.3,168.7,76.7C168.7,76.7,167.5,79.3,168.7,76.7L168.7,76.7 M258.3,114l2.4-0.2l0.1,1.5
				l-7.2,0.6l-0.1-1.5l-2.9,0.2l0.5,6.6l2.9-0.2l-0.1-1.5l7.2-0.6l0.1,1.5l-2.4,0.2l0.2,2.9l5.2-0.4l-1-12.5l-5.2,0.4L258.3,114
				L258.3,114L258.3,114 M244.3,81.8c0.4,0.7,0.6,1,1.1,1.2c0.6,0.2,1.2,0.1,3-0.7c1.8-0.9,2.2-1.3,2.4-1.9c0.1-0.5,0.1-0.8-0.3-1.5
				l-1-2.1c-0.4-0.7-0.6-1-1.1-1.2c-0.6-0.2-1.2-0.1-3,0.8c-1.8,0.9-2.2,1.3-2.4,1.9c-0.2,0.5-0.1,0.8,0.3,1.5L244.3,81.8
				L244.3,81.8L244.3,81.8 M260.3,129c-1.8-0.1-2.6,0-3.2,0.5c-0.4,0.4-0.7,0.9-0.8,1.7l-0.7,3.6c-0.1,0.5-0.2,0.8-0.3,0.9
				c-0.1,0.1-0.3,0.1-0.7,0.1c-0.5,0-0.7-0.1-0.8-0.2c-0.1-0.1-0.1-0.4-0.1-0.9l0.1-1.7c0-0.5,0.1-0.7,0.2-0.8
				c0.1-0.1,0.4-0.1,1.3-0.1l0.3-3.5c-2.3-0.2-3.2-0.1-3.8,0.4c-0.5,0.4-0.7,1.1-0.8,2.2l-0.4,5.1c-0.1,1,0.1,1.6,0.5,2
				c0.5,0.6,1.6,1,3.3,1.1c1.7,0.1,2.6,0,3.2-0.5c0.4-0.3,0.7-0.8,0.8-1.6l0.7-3.6c0.1-0.6,0.2-0.8,0.3-0.9c0.1-0.1,0.3-0.1,0.7-0.1
				c0.4,0,0.6,0.1,0.7,0.2c0.1,0.1,0.1,0.3,0,0.7l-0.1,1.7c0,0.5-0.1,0.6-0.2,0.7c-0.1,0.1-0.4,0.1-1.2,0.1l-0.3,3.5
				c2.2,0.2,3,0,3.6-0.5c0.4-0.4,0.7-1,0.8-2.2l0.4-4.7c0.1-1-0.1-1.6-0.5-2C262.9,129.5,261.9,129.2,260.3,129
				C260.3,129,261.9,129.2,260.3,129L260.3,129 M250.1,97.4l-0.3-1.3l-2.8,0.7l2.7,11l4.8-1.2l-0.8-3.1l-2,0.5l-0.8-3l2.3-0.6
				l0.6,2.6l2.6-0.6l-0.6-2.6l2.1-0.5l0.7,3l-1.8,0.4l0.8,3.1l4.6-1.1l-2.7-11l-2.8,0.7l0.3,1.3L250.1,97.4L250.1,97.4L250.1,97.4
				 M88.6,37.2l3.8,5.9l-1.2,0.7l1.5,2.4l6.3-3.9c1.6-1,2.3-1.7,2.5-2.8c0.3-1.2-0.1-2.5-1.8-5.2c-1.7-2.7-2.8-3.5-4-3.8
				c-1.1-0.2-2,0.1-3.6,1.1l-6.3,3.9l1.5,2.4L88.6,37.2L88.6,37.2L88.6,37.2 M93.2,34.4c0.7-0.4,1-0.6,1.2-0.5
				c0.3,0.1,0.6,0.5,2,2.6c1.4,2.2,1.6,2.6,1.5,2.9c-0.1,0.3-0.3,0.5-1,0.9l-1.4,0.9l-3.8-5.9L93.2,34.4L93.2,34.4L93.2,34.4
				 M218.7,53.2l1.9-2.1l-1.1-1l1.4-1.6l2,1.7l1.8-1.9l-2-1.8l1.6-1.7l2.2,1.9l-1.2,1.3l2.4,2.1l3.1-3.4l-8.5-7.4l-1.9,2.1l1,0.9
				l-4.8,5.2l-1-0.9l-1.9,2.1L218.7,53.2L218.7,53.2L218.7,53.2 M44.9,138l-2.4,0.2l-0.1-1.5l7.2-0.6l0.1,1.5l2.9-0.2l-0.6-6.6
				l-2.9,0.2l0.1,1.5L42,133l-0.1-1.5l2.4-0.2l-0.3-2.9l-5.2,0.4l1.1,12.4l5.2-0.4L44.9,138L44.9,138L44.9,138 M232.6,56.3l1.8-1.5
				l1,1.2l-5.6,4.5l-0.9-1.1l-2.2,1.8l4.3,5.1l2.2-1.8l-0.9-1.1l5.6-4.5l1,1.2l-1.8,1.5l1.9,2.2l4-3.2l-8-9.7l-4,3.2L232.6,56.3
				L232.6,56.3L232.6,56.3 M59.1,170.1c-0.4-0.7-0.6-1-1.1-1.2c-0.6-0.2-1.2-0.1-3,0.8c-1.8,0.9-2.2,1.3-2.4,1.9
				c-0.1,0.5-0.1,0.8,0.3,1.5l1.1,2.1c0.4,0.7,0.6,1,1.1,1.2c0.6,0.2,1.2,0.1,3-0.8s2.2-1.3,2.4-1.9c0.1-0.5,0.1-0.8-0.3-1.5
				L59.1,170.1L59.1,170.1L59.1,170.1 M65.7,64.2c2.8,2.2,4.2,2.8,5.2,2.7c0.7-0.1,1.2-0.4,2.1-1.4l2.8-3.4c0.8-1,1.1-1.6,1-2.3
				c-0.1-0.9-1.1-2-2.9-3.5l-2.3,2.8c1.3,1.1,1.4,1.3,1.5,1.5c0,0.1,0,0.3-0.4,0.7l-1,1.2c-0.4,0.4-0.5,0.5-0.7,0.6
				c-0.2,0-0.6-0.2-2.7-1.9c-2.2-1.8-2.4-2.1-2.5-2.3c0-0.2,0.1-0.3,0.4-0.7l1-1.2c0.3-0.4,0.5-0.5,0.6-0.5c0.2,0,0.5,0.2,1.7,1.1
				l2.3-2.8c-1.9-1.4-3.1-2.1-4.1-2c-0.7,0.1-1.2,0.5-2,1.5l-2.8,3.4c-0.8,1-1,1.6-1,2.3C62,60.8,62.9,62,65.7,64.2
				C65.7,64.2,62.9,62,65.7,64.2L65.7,64.2 M204.3,42.6l1.5-2.3l-1-0.6l0.8-0.8l2.8,1.7l-0.3,1.1l-1-0.6l-1.5,2.3l5.3,3.3l1.5-2.4
				l-0.9-0.6l2.2-8.9c0.2-0.9,0.1-1.4-0.7-1.8l-2.2-1.4c-0.7-0.5-1.2-0.4-2,0.2l-7.3,5.8l-0.9-0.6l-1.5,2.4L204.3,42.6L204.3,42.6
				L204.3,42.6 M210,34.9l0.2,0.1l-0.9,2.9l-1.6-1L210,34.9L210,34.9L210,34.9 M259.4,146.2l-5.9,2.4l-2-0.5l0.3-1.4l-2.8-0.7
				l-1.6,6.4l2.8,0.7l0.3-1.4l2,0.5l4,4.9l-0.3,1l2.8,0.7l1.5-5.9l-2.8-0.7l-0.3,1.1l-1.8-2l0-0.1l2.5-0.8l-0.3,1.1l2.8,0.7l1.6-6.2
				l-2.8-0.7L259.4,146.2L259.4,146.2L259.4,146.2 M53.2,154.5l0.3,1.3l2.8-0.7l-2.8-11l-4.8,1.2l0.8,3.1l2-0.5l0.8,3l-2.3,0.6
				l-0.6-2.6l-2.6,0.6l0.6,2.5l-2.1,0.5l-0.8-3l1.8-0.4l-0.8-3.1l-4.6,1.1l2.8,11l2.8-0.7l-0.3-1.3L53.2,154.5L53.2,154.5
				L53.2,154.5 M134.6,29.1l-0.5-2.7l-1.2,0.2l0.1-1.1l3.2-0.5l0.5,1l-1.2,0.2l0.5,2.7l6.2-1l-0.5-2.8l-1.1,0.2l-4.4-8.1
				c-0.5-0.8-0.9-1.1-1.7-0.9l-2.6,0.4c-0.9,0.1-1.2,0.5-1.3,1.4l-1.5,9.1l-1.1,0.2l0.5,2.8L134.6,29.1L134.6,29.1L134.6,29.1
				 M133.7,19.7l0.2,0l1.3,2.8l-1.9,0.3L133.7,19.7L133.7,19.7L133.7,19.7 M43.6,105.8l5.9-2.4l2,0.5l-0.3,1.4l2.8,0.7l1.6-6.4
				l-2.8-0.7l-0.3,1.4l-2-0.5l-4-4.8l0.3-1l-2.8-0.7l-1.5,5.9l2.8,0.7l0.3-1.1l1.8,2l0,0.1l-2.5,0.8l0.3-1.1l-2.8-0.7l-1.5,6.2
				l2.8,0.7L43.6,105.8L43.6,105.8L43.6,105.8 M104.2,28.3l2.8,6.5l-1.3,0.5l1.1,2.6l10.6-4.5l-1.9-4.5l-3,1.2l0.8,1.9l-2.9,1.2
				l-0.9-2.2l2.5-1l-1-2.4l-2.5,1l-0.9-2l2.9-1.2l0.7,1.7l3-1.2l-1.8-4.2l-10.6,4.4l1.1,2.6L104.2,28.3L104.2,28.3L104.2,28.3
				 M172.9,29.9l4.3,1c1.3,0.3,1.9,0.3,2.5-0.1c0.8-0.5,1.4-1.8,2-4.1l-3.6-0.9c-0.4,1.6-0.5,1.8-0.7,1.9c-0.1,0.1-0.3,0.1-0.8,0
				l-1.5-0.4c-0.6-0.1-0.7-0.2-0.8-0.3c-0.1-0.2-0.1-0.6,0.6-3.3c0.7-2.7,0.8-3.1,1-3.2c0.1-0.1,0.3-0.1,0.9,0.1l1.5,0.4
				c0.5,0.1,0.7,0.2,0.7,0.3c0.1,0.2,0,0.5-0.3,2l3.6,0.9c0.5-2.3,0.6-3.7,0.1-4.5c-0.4-0.6-1-0.9-2.2-1.2l-4.3-1
				c-1.3-0.3-1.9-0.2-2.5,0.1c-0.9,0.5-1.7,1.8-2.5,5.2c-0.8,3.4-0.8,4.9-0.2,5.8C171.1,29.3,171.6,29.6,172.9,29.9
				C172.9,29.9,171.6,29.6,172.9,29.9L172.9,29.9 M152.5,24.9l-1.8,0c-0.5,0-0.8,0-0.9-0.1c-0.1-0.1-0.1-0.4-0.2-1.3l-3.5,0
				c0,2.2,0.2,3.2,0.7,3.7c0.5,0.5,1.1,0.6,2.3,0.6l5.2,0c1,0,1.6-0.2,2-0.6c0.6-0.6,0.9-1.6,0.9-3.4c0-1.7-0.3-2.6-0.8-3.1
				c-0.4-0.4-0.8-0.6-1.7-0.7l-3.7-0.4c-0.6-0.1-0.8-0.1-0.9-0.2c-0.1-0.1-0.1-0.3-0.1-0.7c0-0.4,0-0.6,0.1-0.7
				c0.1-0.1,0.3-0.1,0.7-0.1l1.7,0c0.5,0,0.7,0,0.8,0.1c0.1,0.1,0.1,0.3,0.2,1.1l3.5,0c0-2.2-0.2-3-0.8-3.5
				c-0.4-0.4-1.1-0.6-2.3-0.6l-4.8,0c-1,0-1.6,0.2-2,0.6c-0.6,0.6-0.9,1.6-0.9,3.2c0,1.8,0.2,2.6,0.7,3.1c0.4,0.4,0.9,0.6,1.8,0.7
				l3.7,0.4c0.5,0.1,0.8,0.1,0.9,0.2c0.1,0.1,0.1,0.3,0.1,0.7c0,0.4,0,0.7-0.2,0.8C153.3,24.8,153,24.9,152.5,24.9
				C152.5,24.9,153,24.9,152.5,24.9L152.5,24.9 M191.5,32.8l-1.3-0.5l0.8-1.8l1.2,0.5c0.6,0.2,0.8,0.4,0.8,0.6
				c0.1,0.2,0.1,0.5-0.3,1.4c-0.8,2-0.8,2.5-0.7,2.8c0.1,0.3,0.3,0.5,1,0.8l3.2,1.3l1.1-2.6l-1.1-0.5c0.1-0.2,0.2-0.4,0.2-0.6
				c0.7-1.7,0.3-2.3-0.8-3.1l0,0c1.5,0.3,2.3,0,3.2-2c0.6-1.5,0.7-2.2,0.4-2.9c-0.3-0.6-0.9-1.1-1.9-1.5l-8.1-3.4l-1.1,2.6l1.3,0.5
				l-2.8,6.5l-1.3-0.5l-1.1,2.6l6,2.5L191.5,32.8L191.5,32.8L191.5,32.8 M193,25.8l1.6,0.7c0.5,0.2,0.7,0.3,0.7,0.5
				c0.1,0.2,0,0.5-0.2,1.1c-0.3,0.6-0.4,0.8-0.6,0.9c-0.1,0.1-0.3,0-0.8-0.2l-1.6-0.6L193,25.8L193,25.8L193,25.8 M42.8,123
				c1.8,0.1,2.6,0,3.2-0.5c0.4-0.4,0.7-0.9,0.8-1.7l0.7-3.6c0.1-0.5,0.2-0.8,0.3-0.9c0.1-0.1,0.3-0.1,0.7-0.1c0.5,0,0.7,0.1,0.8,0.2
				c0.1,0.1,0.1,0.4,0.1,0.9l-0.1,1.7c0,0.5-0.1,0.7-0.2,0.8c-0.1,0.1-0.4,0.1-1.3,0.1l-0.3,3.5c2.3,0.2,3.2,0,3.8-0.4
				c0.5-0.4,0.7-1.1,0.8-2.2l0.4-5.1c0.1-1-0.1-1.6-0.5-2c-0.5-0.6-1.6-1-3.3-1.1c-1.7-0.1-2.6,0.1-3.2,0.5
				c-0.4,0.4-0.7,0.8-0.8,1.6l-0.7,3.6c-0.1,0.6-0.2,0.8-0.3,0.9c-0.1,0.1-0.3,0.1-0.7,0.1c-0.4,0-0.6-0.1-0.7-0.2
				c-0.1-0.1-0.1-0.3,0-0.7l0.1-1.7c0-0.5,0.1-0.6,0.2-0.7c0.1-0.1,0.4-0.1,1.2-0.1l0.3-3.5c-2.2-0.1-3,0-3.6,0.5
				c-0.4,0.4-0.7,1-0.8,2.2l-0.4,4.7c-0.1,1,0.1,1.6,0.5,2C40.2,122.5,41.2,122.8,42.8,123C42.8,123,41.2,122.8,42.8,123L42.8,123
				 M84.8,198.5l-1.9,2.1l1.1,0.9l-1.4,1.6l-2-1.7l-1.8,2l2,1.7l-1.6,1.7l-2.2-1.9l1.2-1.3l-2.4-2.1l-3.1,3.4l8.5,7.4l1.9-2.1
				l-1-0.9l4.7-5.3l1,0.9l1.9-2.1L84.8,198.5L84.8,198.5L84.8,198.5 M215.1,213.8l-3.9-5.9l1.1-0.7l-1.6-2.4l-6.2,3.9
				c-1.6,1-2.3,1.7-2.5,2.8c-0.3,1.2,0.1,2.5,1.8,5.2c1.7,2.7,2.8,3.5,4.1,3.8c1.1,0.2,2-0.1,3.6-1.1l6.2-3.9l-1.6-2.4L215.1,213.8
				L215.1,213.8L215.1,213.8 M210.5,216.7c-0.7,0.4-1,0.6-1.2,0.5c-0.3-0.1-0.6-0.5-2-2.6c-1.4-2.2-1.6-2.6-1.6-2.9
				c0.1-0.2,0.3-0.5,1-0.9l1.4-0.9l3.9,5.9L210.5,216.7L210.5,216.7L210.5,216.7 M151.1,226.5l1.8,0c0.5,0,0.8,0,0.9,0.1
				c0.1,0.1,0.1,0.4,0.2,1.3l3.5,0c0-2.2-0.2-3.1-0.8-3.7c-0.5-0.4-1.1-0.6-2.3-0.6l-5.2,0c-1,0-1.6,0.2-2,0.6
				c-0.6,0.6-0.9,1.6-0.9,3.4c0,1.7,0.3,2.6,0.8,3.1c0.4,0.4,0.8,0.6,1.7,0.7l3.7,0.4c0.6,0.1,0.8,0.1,0.9,0.2
				c0.1,0.1,0.2,0.3,0.2,0.7c0,0.4,0,0.6-0.1,0.7c-0.1,0.1-0.3,0.1-0.7,0.1l-1.7,0c-0.5,0-0.7,0-0.8-0.1c-0.1-0.1-0.1-0.3-0.2-1.1
				l-3.5,0c0,2.2,0.2,3,0.8,3.5c0.4,0.4,1.1,0.6,2.3,0.6l4.8,0c1,0,1.6-0.2,2-0.6c0.6-0.6,0.9-1.6,0.9-3.2c0-1.8-0.2-2.6-0.7-3.1
				c-0.4-0.4-0.9-0.6-1.8-0.7l-3.7-0.4c-0.5-0.1-0.8-0.1-0.9-0.2c-0.1-0.1-0.2-0.3-0.2-0.7c0-0.5,0-0.7,0.1-0.8
				C150.3,226.6,150.6,226.5,151.1,226.5C151.1,226.5,150.6,226.5,151.1,226.5L151.1,226.5 M169.1,222.2l0.5,2.7l1.2-0.2l-0.1,1.1
				l-3.2,0.5l-0.5-1l1.2-0.2l-0.5-2.7l-6.2,1l0.5,2.8l1.1-0.2l4.4,8.1c0.5,0.8,0.9,1.1,1.7,0.9l2.6-0.4c0.9-0.1,1.2-0.5,1.3-1.4
				l1.5-9.1l1.1-0.2l-0.5-2.8L169.1,222.2L169.1,222.2L169.1,222.2 M170.1,231.6l-0.2,0l-1.3-2.8l1.9-0.3L170.1,231.6L170.1,231.6
				L170.1,231.6 M199.5,222.8l-2.9-6.5l1.3-0.5l-1.1-2.6l-10.6,4.5l2,4.5l3-1.3l-0.8-1.9l2.9-1.2l0.9,2.1l-2.5,1l1.1,2.4l2.5-1
				l0.9,2l-2.9,1.2l-0.7-1.7l-3,1.3l1.9,4.2l10.5-4.5l-1.2-2.6L199.5,222.8L199.5,222.8L199.5,222.8 M222.3,195.9
				c-0.7,0-1.3,0.2-2.3,1.1l-3.3,3c-1,0.9-1.3,1.4-1.3,2.1c-0.1,1,0.6,2.4,3,5c2.4,2.6,3.7,3.4,4.7,3.4c0.7,0,1.2-0.2,2.2-1.1l3.3-3
				c1-0.9,1.3-1.4,1.3-2.1c0.1-1-0.6-2.4-3-5C224.6,196.7,223.3,195.9,222.3,195.9C222.3,195.9,223.3,195.9,222.3,195.9L222.3,195.9
				 M225.6,205.2l-1.2,1c-0.4,0.4-0.6,0.5-0.7,0.5c-0.2,0-0.5-0.2-2.4-2.3c-1.9-2.1-2.1-2.4-2.1-2.6c0-0.2,0.1-0.3,0.5-0.7l1.2-1
				c0.4-0.4,0.6-0.5,0.7-0.5c0.2,0,0.5,0.2,2.4,2.3c1.9,2.1,2.1,2.4,2.1,2.6C226.1,204.7,226,204.8,225.6,205.2
				C225.6,205.2,226,204.8,225.6,205.2L225.6,205.2 M70.9,195.5l-1.8,1.5l-1-1.2l5.6-4.5l1,1.1l2.2-1.8l-4.3-5.1l-2.2,1.8l0.9,1.1
				l-5.6,4.5l-1-1.2l1.8-1.5l-1.9-2.2l-4,3.2l8.1,9.6l4-3.2L70.9,195.5L70.9,195.5L70.9,195.5 M237.8,186.7
				c-2.8-2.2-4.2-2.8-5.2-2.6c-0.7,0.1-1.2,0.4-2,1.4l-2.8,3.4c-0.8,1-1.1,1.6-1,2.3c0.1,0.9,1.1,2,2.9,3.5l2.3-2.8
				c-1.3-1.1-1.5-1.3-1.5-1.4c0-0.1,0-0.3,0.4-0.7l1-1.2c0.4-0.4,0.5-0.5,0.6-0.6c0.2,0,0.6,0.2,2.8,1.9c2.2,1.7,2.5,2.1,2.5,2.2
				c0,0.2-0.1,0.3-0.4,0.7l-1,1.2c-0.3,0.4-0.5,0.5-0.6,0.5c-0.2,0-0.5-0.2-1.7-1.1l-2.3,2.8c1.9,1.4,3.1,2.1,4.1,2
				c0.7-0.1,1.2-0.5,2-1.5l2.8-3.4c0.8-1,1-1.6,0.9-2.3C241.4,190.1,240.6,188.9,237.8,186.7C237.8,186.7,240.6,188.9,237.8,186.7
				L237.8,186.7 M248,170c-1.8-0.9-2.4-1-3-0.8c-0.5,0.2-0.7,0.4-1.1,1.1l-1.1,2.1c-0.4,0.7-0.4,1.1-0.3,1.5c0.2,0.6,0.6,1,2.4,1.9
				c1.8,0.9,2.4,1,3,0.8c0.5-0.2,0.7-0.5,1.1-1.2l1.1-2.1c0.4-0.7,0.4-1.1,0.3-1.5C250.2,171.3,249.8,170.9,248,170
				C248,170,249.8,170.9,248,170L248,170 M54.9,82c1.8,0.9,2.4,1,3,0.8c0.5-0.2,0.7-0.5,1.1-1.2l1.1-2.1c0.4-0.7,0.4-1.1,0.3-1.5
				c-0.2-0.6-0.6-1-2.4-1.9c-1.8-0.9-2.4-1-3-0.8c-0.5,0.2-0.7,0.5-1.1,1.2l-1.1,2.1c-0.4,0.7-0.4,1.1-0.3,1.5
				C52.7,80.7,53.1,81.1,54.9,82C54.9,82,53.1,81.1,54.9,82L54.9,82 M81.3,55.1c0.7,0,1.2-0.2,2.3-1.1l3.4-2.9
				c1-0.9,1.3-1.4,1.3-2.1c0.1-1-0.6-2.4-3-5c-2.4-2.6-3.7-3.4-4.7-3.4c-0.7,0-1.3,0.2-2.3,1.1l-3.4,2.9c-1,0.9-1.3,1.4-1.3,2.1
				c-0.1,1,0.6,2.4,3,5C78.9,54.3,80.2,55.1,81.3,55.1C81.3,55.1,80.2,55.1,81.3,55.1L81.3,55.1 M78,45.8l1.2-1
				c0.4-0.4,0.6-0.5,0.7-0.4c0.2,0,0.5,0.3,2.4,2.3c1.9,2.1,2.1,2.4,2.1,2.6c0,0.2-0.1,0.3-0.5,0.7l-1.2,1c-0.4,0.4-0.6,0.5-0.7,0.4
				c-0.2,0-0.5-0.2-2.4-2.3c-1.9-2.1-2.1-2.4-2.1-2.6C77.5,46.3,77.6,46.1,78,45.8C78,45.8,77.6,46.1,78,45.8L78,45.8 M99.3,209.1
				l-1.5,2.3l1,0.6l-0.8,0.8l-2.8-1.7l0.3-1.1l1,0.6l1.5-2.3l-5.4-3.3l-1.5,2.4L92,208l-2.2,9c-0.2,0.9-0.1,1.4,0.7,1.8l2.2,1.4
				c0.8,0.5,1.2,0.4,2-0.2l7.3-5.8l0.9,0.6l1.5-2.4L99.3,209.1L99.3,209.1L99.3,209.1 M93.6,216.8l-0.2-0.1l0.9-2.9l1.6,1
				L93.6,216.8L93.6,216.8L93.6,216.8 M112.1,218.8l1.3,0.5l-0.8,1.8l-1.2-0.5c-0.6-0.2-0.8-0.4-0.8-0.6c-0.1-0.2-0.1-0.5,0.3-1.4
				c0.8-2,0.8-2.5,0.6-2.8c-0.1-0.3-0.3-0.5-1-0.8l-3.2-1.3l-1.1,2.6l1.1,0.5c-0.1,0.2-0.2,0.4-0.2,0.7c-0.7,1.7-0.3,2.3,0.8,3.1
				l0,0c-1.5-0.3-2.3,0-3.1,2.1c-0.6,1.5-0.7,2.2-0.4,2.9c0.3,0.6,0.9,1.1,1.9,1.5l8.1,3.3l1.1-2.6l-1.3-0.5l2.7-6.5l1.3,0.5
				l1.1-2.6l-6-2.5L112.1,218.8L112.1,218.8L112.1,218.8 M110.6,225.8l-1.6-0.6c-0.5-0.2-0.7-0.3-0.7-0.5c-0.1-0.2,0-0.5,0.2-1.1
				c0.3-0.6,0.4-0.8,0.6-0.9c0.1-0.1,0.3,0,0.8,0.2l1.6,0.6L110.6,225.8L110.6,225.8L110.6,225.8 M130.8,221.6l-4.3-1
				c-1.3-0.3-1.9-0.3-2.5,0.1c-0.8,0.5-1.4,1.8-1.9,4.1l3.6,0.8c0.4-1.6,0.5-1.8,0.7-1.9c0.1-0.1,0.3-0.1,0.8,0l1.5,0.4
				c0.6,0.1,0.7,0.2,0.8,0.3c0.1,0.2,0.1,0.6-0.6,3.3c-0.6,2.7-0.8,3.1-1,3.2c-0.1,0.1-0.3,0.1-0.9,0l-1.5-0.4
				c-0.5-0.1-0.7-0.2-0.7-0.3c-0.1-0.2-0.1-0.5,0.2-2l-3.6-0.8c-0.5,2.3-0.6,3.7-0.1,4.5c0.4,0.6,1,0.9,2.2,1.2l4.3,1
				c1.3,0.3,1.9,0.2,2.5-0.1c0.9-0.5,1.7-1.8,2.5-5.2c0.8-3.4,0.7-4.9,0.2-5.8C132.6,222.2,132.1,221.9,130.8,221.6
				C130.8,221.6,132.1,221.9,130.8,221.6L130.8,221.6 M277.5,152.3l13.7-11.9L280.3,126l10.9-14.4l-13.7-11.9l7.6-16.4l-15.9-8.8
				l4-17.6l-17.5-5.3l0.2-18L237.6,32L234,14.3l-18.2,2.1l-7.2-16.5l-17.3,5.8L180.7-9L165,0.2L151.5-12L138.1,0.2L122.3-9
				L111.8,5.7L94.4,0l-7.2,16.5L69,14.4L65.5,32l-18.2,1.7l0.2,18L30,57.1l4,17.6l-15.9,8.8l7.7,16.3L12,111.7l10.9,14.4L12,140.5
				l13.8,11.9l-7.6,16.3l16,8.8l-4,17.6l17.5,5.3l-0.2,18l18.2,1.6l3.6,17.6l18.2-2.1l7.2,16.5l17.3-5.8l10.6,14.7l15.7-9.2
				l13.5,12.2l13.4-12.2l15.7,9.2l10.6-14.7l17.3,5.7l7.2-16.5l18.2,2.1l3.6-17.6l18.2-1.7l-0.2-18l17.5-5.4l-4-17.5l15.9-8.8
				L277.5,152.3L277.5,152.3L277.5,152.3 M285.2,139.8l-11.3,9.8c1.4-7,2.2-14.3,2.3-21.7L285.2,139.8L285.2,139.8L285.2,139.8
				 M285.2,112.1l-9,11.9c-0.1-7.4-0.9-14.7-2.3-21.7L285.2,112.1L285.2,112.1L285.2,112.1 M279.3,85.1L273,98.6
				c-1.7-7.2-4-14.1-6.8-20.7L279.3,85.1L279.3,85.1L279.3,85.1 M267.9,59.9l-3.3,14.5c-3.2-6.7-6.9-13-11.2-18.9L267.9,59.9
				L267.9,59.9L267.9,59.9 M251.4,37.6l-0.2,14.9c-4.5-5.9-9.5-11.3-14.9-16.3L251.4,37.6L251.4,37.6L251.4,37.6 M230.5,19.1l3,14.6
				c-5.6-4.8-11.6-9.1-18-12.9L230.5,19.1L230.5,19.1L230.5,19.1 M206.2,5.3l6,13.7c-6.4-3.5-13.2-6.5-20.3-8.9L206.2,5.3L206.2,5.3
				L206.2,5.3 M179.5-3.2l8.7,12.1c-7-2.1-14.2-3.6-21.7-4.5L179.5-3.2L179.5-3.2L179.5-3.2 M151.5-6.1L162.6,4
				c-3.6-0.3-7.3-0.5-11-0.5c-3.8,0-7.5,0.2-11.2,0.5L151.5-6.1L151.5-6.1L151.5-6.1 M123.6-3.1l13,7.6c-7.4,0.9-14.7,2.4-21.7,4.5
				L123.6-3.1L123.6-3.1L123.6-3.1 M96.9,5.4l14.3,4.7c-7.1,2.4-13.9,5.4-20.3,8.9L96.9,5.4L96.9,5.4L96.9,5.4 M72.6,19.2l15,1.7
				c-6.4,3.8-12.4,8.1-18,12.9L72.6,19.2L72.6,19.2L72.6,19.2 M66.9,36.3c-5.4,5-10.5,10.4-14.9,16.3l-0.2-14.9L66.9,36.3L66.9,36.3
				L66.9,36.3 M49.7,55.6c-4.3,5.9-8,12.3-11.2,18.9l-3.3-14.5L49.7,55.6L49.7,55.6L49.7,55.6 M23.8,85.3L37,78
				c-2.9,6.6-5.2,13.6-6.8,20.7L23.8,85.3L23.8,85.3L23.8,85.3 M18,112.3l11.3-9.8c-1.4,7-2.2,14.3-2.3,21.7L18,112.3L18,112.3
				L18,112.3 M18,139.9l9-11.9c0.1,7.4,0.9,14.7,2.3,21.7L18,139.9L18,139.9L18,139.9 M23.9,166.9l6.3-13.5c1.7,7.2,4,14.1,6.9,20.7
				L23.9,166.9L23.9,166.9L23.9,166.9 M35.3,192.1l3.3-14.5c3.2,6.7,6.9,13,11.2,18.9L35.3,192.1L35.3,192.1L35.3,192.1 M51.8,214.5
				l0.2-14.9c4.5,5.9,9.5,11.3,14.9,16.3L51.8,214.5L51.8,214.5L51.8,214.5 M72.7,232.9l-3-14.7c5.6,4.8,11.6,9.1,18,12.9
				L72.7,232.9L72.7,232.9L72.7,232.9 M97,246.7l-6-13.6c6.4,3.5,13.2,6.5,20.3,8.9L97,246.7L97,246.7L97,246.7 M123.8,255.2
				l-8.7-12.1c7,2.1,14.2,3.6,21.7,4.5L123.8,255.2L123.8,255.2L123.8,255.2 M151.7,258.1l-11.1-10.1c3.6,0.3,7.3,0.5,11,0.5
				c3.8,0,7.5-0.2,11.2-0.5L151.7,258.1L151.7,258.1L151.7,258.1 M179.6,255.2l-13-7.6c7.4-0.9,14.7-2.4,21.7-4.5L179.6,255.2
				L179.6,255.2L179.6,255.2 M206.3,246.7l-14.3-4.7c7.1-2.4,13.9-5.4,20.3-8.9L206.3,246.7L206.3,246.7L206.3,246.7 M230.6,232.8
				l-15-1.7c6.4-3.8,12.4-8.1,18-12.9L230.6,232.8L230.6,232.8L230.6,232.8 M151.6,242.5c-65.3,0-118.5-52.3-118.5-116.5
				C33.1,61.8,86.3,9.5,151.6,9.5S270.1,61.8,270.1,126C270.1,190.3,216.9,242.5,151.6,242.5L151.6,242.5L151.6,242.5 M236.4,215.7
				c5.4-5,10.4-10.4,14.9-16.3l0.2,14.9L236.4,215.7L236.4,215.7L236.4,215.7 M253.5,196.5c4.3-5.9,8-12.3,11.2-18.9L268,192
				L253.5,196.5L253.5,196.5L253.5,196.5 M266.2,174c2.9-6.6,5.2-13.6,6.8-20.7l6.3,13.5L266.2,174L266.2,174L266.2,174 M151.6,32.6
				c-51.7,0-93.7,41.3-93.7,92.1c0,50.8,42,92.1,93.7,92.1c51.7,0,93.7-41.3,93.7-92.1C245.3,73.9,203.3,32.6,151.6,32.6L151.6,32.6
				L151.6,32.6 M214.2,64.6l-6.7-0.6l-1.3-6.5C209,59.7,211.7,62.1,214.2,64.6C214.2,64.6,211.7,62.1,214.2,64.6L214.2,64.6
				 M214.8,69.1l-0.1,7.2l-7.7-3.6l-0.4-4.4L214.8,69.1L214.8,69.1L214.8,69.1 M203.2,65.5l-7.5,0.1l-2.3-7.2l8.1-0.9L203.2,65.5
				L203.2,65.5L203.2,65.5 M200.1,53.1l-6.8,0.8l-2.7-6.2C193.9,49.3,197.1,51.1,200.1,53.1C200.1,53.1,197.1,51.1,200.1,53.1
				L200.1,53.1 M191.2,65.3l-7.4-3.5l5.9-1.3L191.2,65.3L191.2,65.3L191.2,65.3 M189.5,56.3l-7.3,1.6l-3.8-6.6l7.7-2.6L189.5,56.3
				L189.5,56.3L189.5,56.3 M183.9,44.8l-6.6,2.2l-4.1-5.6C176.9,42.3,180.5,43.4,183.9,44.8C183.9,44.8,180.5,43.4,183.9,44.8
				L183.9,44.8 M177.9,59.1l-6.7-3.2l3.9-1.8L177.9,59.1L177.9,59.1L177.9,59.1 M174,50.1l-6.8,3.1l-5.1-5.7l7-4.1L174,50.1
				L174,50.1L174,50.1 M166.2,39.9l-6,3.5l-5.1-4.7C158.9,38.9,162.6,39.3,166.2,39.9C166.2,39.9,162.6,39.3,166.2,39.9L166.2,39.9
				 M157.7,47.1l-2,1.5l-4.1-1.9l-4,1.9l-2.1-1.5l6-5.5L157.7,47.1L157.7,47.1L157.7,47.1 M147.9,38.7l-5.1,4.7l-6-3.5
				C140.4,39.3,144.1,38.9,147.9,38.7C147.9,38.7,144.1,38.9,147.9,38.7L147.9,38.7 M141,47.6l-5,5.5l-7-3.2l4.7-6.6L141,47.6
				L141,47.6L141,47.6 M132,55.9l-6.7,3.2l2.8-4.9L132,55.9L132,55.9L132,55.9 M129.7,41.4l-4,5.6l-6.6-2.2
				C122.5,43.5,126,42.3,129.7,41.4C129.7,41.4,126,42.3,129.7,41.4L129.7,41.4 M116.9,48.8l7.9,2.6l-3.7,6.4l-7.5-1.7L116.9,48.8
				L116.9,48.8L116.9,48.8 M119.5,61.8l-7.4,3.5l1.5-4.8L119.5,61.8L119.5,61.8L119.5,61.8 M112.4,47.8l-2.7,6.2l-6.8-0.8
				C105.9,51.3,109.1,49.4,112.4,47.8C112.4,47.8,109.1,49.4,112.4,47.8L112.4,47.8 M101.5,57.6l8.3,1l-2.2,7l-7.7-0.1L101.5,57.6
				L101.5,57.6L101.5,57.6 M96.8,57.6l-1.3,6.5l-6.6,0.6C91.4,62.2,94,59.9,96.8,57.6C96.8,57.6,94,59.9,96.8,57.6L96.8,57.6
				 M96.6,68.5l-0.4,4.2l-7.8,3.7l-0.1-7.1L96.6,68.5L96.6,68.5L96.6,68.5 M83.8,70.4l0.1,6.5l-6.3,1.9
				C79.5,75.9,81.5,73.1,83.8,70.4C83.8,70.4,81.5,73.1,83.8,70.4L83.8,70.4 M83.9,179.3c-1.9-2.3-3.7-4.7-5.4-7.2l5.5,1.7
				L83.9,179.3L83.9,179.3L83.9,179.3 M90.2,186l5.5,0.5l1.1,5.3C94.5,190,92.3,188,90.2,186C90.2,186,92.3,188,90.2,186L90.2,186
				 M88.4,181.3l0.1-7.2l7.7,3.6l0.4,4.4L88.4,181.3L88.4,181.3L88.4,181.3 M100,185l7.5-0.1l2.3,7.2l-8.1,0.9L100,185L100,185
				L100,185 M104.4,197.2l5.4-0.6l2.2,4.9C109.4,200.2,106.9,198.7,104.4,197.2C104.4,197.2,106.9,198.7,104.4,197.2L104.4,197.2
				 M112,185.2l7.4,3.5l-5.9,1.3L112,185.2L112,185.2L112,185.2 M113.8,194.2l7.3-1.6l3.8,6.6l-7.8,2.6L113.8,194.2L113.8,194.2
				L113.8,194.2 M120.7,205.3l5.2-1.7l3.1,4.4C126.2,207.2,123.4,206.3,120.7,205.3C120.7,205.3,123.4,206.3,120.7,205.3
				L120.7,205.3 M125.3,191.4l6.7,3.2l-3.9,1.8L125.3,191.4L125.3,191.4L125.3,191.4 M129.2,200.4l6.8-3.1l5.1,5.7l-7,4.1
				L129.2,200.4L129.2,200.4L129.2,200.4 M138.3,209.8l4.7-2.7l4,3.6C144,210.5,141.1,210.3,138.3,209.8
				C138.3,209.8,141.1,210.3,138.3,209.8L138.3,209.8 M145.6,203.4l2.1-1.6l4,2.1l4-1.9l2.1,1.5l-6,5.5L145.6,203.4L145.6,203.4
				L145.6,203.4 M156.5,210.7l4-3.6l4.7,2.7C162.3,210.2,159.4,210.5,156.5,210.7C156.5,210.7,159.4,210.5,156.5,210.7L156.5,210.7
				 M169.4,207.1l-7.2-4.2l4.9-5.5l7,3.2L169.4,207.1L169.4,207.1L169.4,207.1 M171.2,194.6l6.7-3.2l-2.8,4.9L171.2,194.6
				L171.2,194.6L171.2,194.6 M174.4,207.8l3.1-4.4l5.2,1.7C180,206.2,177.3,207.1,174.4,207.8C174.4,207.8,177.3,207.1,174.4,207.8
				L174.4,207.8 M186.3,201.7l-7.9-2.6l3.7-6.4l7.5,1.7L186.3,201.7L186.3,201.7L186.3,201.7 M189.6,190l-5.9-1.3l7.4-3.5L189.6,190
				L189.6,190L189.6,190 M191.4,201.4l2.1-4.9l5.4,0.6C196.5,198.6,194,200.1,191.4,201.4C191.4,201.4,194,200.1,191.4,201.4
				L191.4,201.4 M201.7,192.9l-8.3-0.9l2.2-7l7.7,0.1L201.7,192.9L201.7,192.9L201.7,192.9 M206.6,191.6l1.1-5.3l5.5-0.5
				C211.1,187.9,208.9,189.8,206.6,191.6C206.6,191.6,208.9,189.8,206.6,191.6L206.6,191.6 M206.6,181.9l0.4-4.2l7.8-3.7l0.1,7.1
				L206.6,181.9L206.6,181.9L206.6,181.9 M219.4,179.1l-0.1-5.5l5.4-1.7C223.1,174.3,221.4,176.8,219.4,179.1
				C219.4,179.1,221.4,176.8,219.4,179.1L219.4,179.1 M239.1,124.7c0,11.1-2.2,21.8-6.1,31.5c-0.7,1.7-1.5,3.4-2.4,5.1l-79,35.8
				l-79-35.8c-0.7-1.4-1.4-2.9-2.1-4.3c-4.1-10-6.4-20.9-6.4-32.3c0-12.6,2.8-24.5,7.7-35.3l79.8-36.2l79.8,36.2
				C236.4,100.2,239.1,112.2,239.1,124.7C239.1,124.7,239.1,112.2,239.1,124.7L239.1,124.7 M219.3,70.2c2.2,2.7,4.3,5.5,6.2,8.5
				l-6.3-1.9L219.3,70.2L219.3,70.2L219.3,70.2 M167.9,121.3c-2.4,2.3-3.2,5.7-3.2,21.4c0,15.7,0.9,19.1,3.2,21.4
				c1.4,1.4,3,1.9,7,1.9h14.8c3.5,0,5.9-0.5,7.3-1.8c2.3-2.3,2.8-4.7,2.9-14.2h-7.4c-0.2,7-0.3,8.2-0.9,8.7c-0.5,0.5-1.1,0.7-3,0.7
				h-12.2c-2.1,0-2.6-0.1-3-0.6c-0.7-0.7-0.9-2.6-0.9-16c0-13.4,0.3-15.4,0.9-16c0.5-0.5,0.9-0.6,3-0.6h12.2c2,0,2.6,0.2,3,0.6
				c0.5,0.5,0.8,2.1,0.9,8h7.4c-0.1-9.1-0.7-11.4-2.8-13.6c-1.2-1.2-3.4-1.7-7.2-1.7h-14.9C170.8,119.5,169.3,119.9,167.9,121.3
				C167.9,121.3,169.3,119.9,167.9,121.3L167.9,121.3 M134.7,117.9h-7.4c-0.2,7-0.3,8.2-0.9,8.7c-0.5,0.5-1.1,0.7-3,0.7h-12.2
				c-2.1,0-2.6-0.1-3-0.6c-0.7-0.7-0.9-2.6-0.9-16s0.3-15.4,0.9-16c0.5-0.5,0.9-0.6,3-0.6h12.2c2,0,2.6,0.2,3,0.6
				c0.5,0.5,0.8,2.1,0.9,8h7.4c-0.1-9.1-0.7-11.4-2.8-13.6c-1.2-1.2-3.4-1.7-7.2-1.7h-14.9c-4.1,0-5.6,0.5-7,1.9
				c-2.4,2.3-3.2,5.7-3.2,21.4s0.9,19.1,3.2,21.4c1.4,1.4,3,1.9,7,1.9h14.8c3.5,0,5.9-0.5,7.3-1.8
				C134.1,129.9,134.5,127.4,134.7,117.9C134.7,117.9,134.5,127.4,134.7,117.9L134.7,117.9 M176.1,78.1c1.3-3.1,0.4-6.4-2.1-7.5
				c-2.5-1.1-5.6,0.6-7,3.6c-1.3,3.1-40.4,106.2-40.4,106.2S174.8,81.2,176.1,78.1C176.1,78.1,174.8,81.2,176.1,78.1L176.1,78.1"/>
		</g>
	</g>
</g>
</svg>
